<svg width="266" height="432" viewBox="0 0 266 432" fill="none" xmlns="http://www.w3.org/2000/svg">
<rect width="80" height="80" transform="translate(8)" fill="url(#paint0_linear_126_5273)"/>
<g clip-path="url(#clip0_126_5273)">
<path d="M30 52H66V48H30V52ZM30 42H66V38H30V42ZM30 28V32H66V28H30Z" fill="white"/>
</g>
<g filter="url(#filter0_d_126_5273)">
<rect width="250" height="336" transform="translate(8 80)" fill="#F1F2F2"/>
<path d="M32.528 116.368C32.528 115.259 32.768 114.272 33.248 113.408C33.728 112.533 34.3947 111.856 35.248 111.376C36.112 110.885 37.088 110.64 38.176 110.64C39.5093 110.64 40.6507 110.992 41.6 111.696C42.5493 112.4 43.184 113.36 43.504 114.576H40.496C40.272 114.107 39.952 113.749 39.536 113.504C39.1307 113.259 38.6667 113.136 38.144 113.136C37.3013 113.136 36.6187 113.429 36.096 114.016C35.5733 114.603 35.312 115.387 35.312 116.368C35.312 117.349 35.5733 118.133 36.096 118.72C36.6187 119.307 37.3013 119.6 38.144 119.6C38.6667 119.6 39.1307 119.477 39.536 119.232C39.952 118.987 40.272 118.629 40.496 118.16H43.504C43.184 119.376 42.5493 120.336 41.6 121.04C40.6507 121.733 39.5093 122.08 38.176 122.08C37.088 122.08 36.112 121.84 35.248 121.36C34.3947 120.869 33.728 120.192 33.248 119.328C32.768 118.464 32.528 117.477 32.528 116.368ZM44.6355 117.52C44.6355 116.603 44.8062 115.797 45.1475 115.104C45.4995 114.411 45.9742 113.877 46.5715 113.504C47.1688 113.131 47.8355 112.944 48.5715 112.944C49.2008 112.944 49.7502 113.072 50.2195 113.328C50.6995 113.584 51.0675 113.92 51.3235 114.336V113.072H54.0595V122H51.3235V120.736C51.0568 121.152 50.6835 121.488 50.2035 121.744C49.7342 122 49.1848 122.128 48.5555 122.128C47.8302 122.128 47.1688 121.941 46.5715 121.568C45.9742 121.184 45.4995 120.645 45.1475 119.952C44.8062 119.248 44.6355 118.437 44.6355 117.52ZM51.3235 117.536C51.3235 116.853 51.1315 116.315 50.7475 115.92C50.3742 115.525 49.9155 115.328 49.3715 115.328C48.8275 115.328 48.3635 115.525 47.9795 115.92C47.6062 116.304 47.4195 116.837 47.4195 117.52C47.4195 118.203 47.6062 118.747 47.9795 119.152C48.3635 119.547 48.8275 119.744 49.3715 119.744C49.9155 119.744 50.3742 119.547 50.7475 119.152C51.1315 118.757 51.3235 118.219 51.3235 117.536ZM61.0149 119.68V122H59.6229C58.6309 122 57.8575 121.76 57.3029 121.28C56.7482 120.789 56.4709 119.995 56.4709 118.896V115.344H55.3829V113.072H56.4709V110.896H59.2069V113.072H60.9989V115.344H59.2069V118.928C59.2069 119.195 59.2709 119.387 59.3989 119.504C59.5269 119.621 59.7402 119.68 60.0389 119.68H61.0149ZM70.9549 117.392C70.9549 117.648 70.9389 117.915 70.9069 118.192H64.7149C64.7575 118.747 64.9335 119.173 65.2429 119.472C65.5629 119.76 65.9522 119.904 66.4109 119.904C67.0935 119.904 67.5682 119.616 67.8349 119.04H70.7469C70.5975 119.627 70.3255 120.155 69.9309 120.624C69.5469 121.093 69.0615 121.461 68.4749 121.728C67.8882 121.995 67.2322 122.128 66.5069 122.128C65.6322 122.128 64.8535 121.941 64.1709 121.568C63.4882 121.195 62.9549 120.661 62.5709 119.968C62.1869 119.275 61.9949 118.464 61.9949 117.536C61.9949 116.608 62.1815 115.797 62.5549 115.104C62.9389 114.411 63.4722 113.877 64.1549 113.504C64.8375 113.131 65.6215 112.944 66.5069 112.944C67.3709 112.944 68.1389 113.125 68.8109 113.488C69.4829 113.851 70.0055 114.368 70.3789 115.04C70.7629 115.712 70.9549 116.496 70.9549 117.392ZM68.1549 116.672C68.1549 116.203 67.9949 115.829 67.6749 115.552C67.3549 115.275 66.9549 115.136 66.4749 115.136C66.0162 115.136 65.6269 115.269 65.3069 115.536C64.9975 115.803 64.8055 116.181 64.7309 116.672H68.1549ZM75.7903 112.944C76.4196 112.944 76.9689 113.072 77.4383 113.328C77.9183 113.584 78.2863 113.92 78.5423 114.336V113.072H81.2783V121.984C81.2783 122.805 81.1129 123.547 80.7823 124.208C80.4623 124.88 79.9663 125.413 79.2943 125.808C78.6329 126.203 77.8063 126.4 76.8143 126.4C75.4916 126.4 74.4196 126.085 73.5983 125.456C72.7769 124.837 72.3076 123.995 72.1903 122.928H74.8943C74.9796 123.269 75.1823 123.536 75.5023 123.728C75.8223 123.931 76.2169 124.032 76.6863 124.032C77.2516 124.032 77.6996 123.867 78.0303 123.536C78.3716 123.216 78.5423 122.699 78.5423 121.984V120.72C78.2756 121.136 77.9076 121.477 77.4383 121.744C76.9689 122 76.4196 122.128 75.7903 122.128C75.0543 122.128 74.3876 121.941 73.7903 121.568C73.1929 121.184 72.7183 120.645 72.3663 119.952C72.0249 119.248 71.8543 118.437 71.8543 117.52C71.8543 116.603 72.0249 115.797 72.3663 115.104C72.7183 114.411 73.1929 113.877 73.7903 113.504C74.3876 113.131 75.0543 112.944 75.7903 112.944ZM78.5423 117.536C78.5423 116.853 78.3503 116.315 77.9663 115.92C77.5929 115.525 77.1343 115.328 76.5903 115.328C76.0463 115.328 75.5823 115.525 75.1983 115.92C74.8249 116.304 74.6383 116.837 74.6383 117.52C74.6383 118.203 74.8249 118.747 75.1983 119.152C75.5823 119.547 76.0463 119.744 76.5903 119.744C77.1343 119.744 77.5929 119.547 77.9663 119.152C78.3503 118.757 78.5423 118.219 78.5423 117.536ZM87.3216 122.128C86.447 122.128 85.6576 121.941 84.9536 121.568C84.2603 121.195 83.711 120.661 83.3056 119.968C82.911 119.275 82.7136 118.464 82.7136 117.536C82.7136 116.619 82.9163 115.813 83.3216 115.12C83.727 114.416 84.2816 113.877 84.9856 113.504C85.6896 113.131 86.479 112.944 87.3536 112.944C88.2283 112.944 89.0176 113.131 89.7216 113.504C90.4256 113.877 90.9803 114.416 91.3856 115.12C91.791 115.813 91.9936 116.619 91.9936 117.536C91.9936 118.453 91.7856 119.264 91.3696 119.968C90.9643 120.661 90.4043 121.195 89.6896 121.568C88.9856 121.941 88.1963 122.128 87.3216 122.128ZM87.3216 119.76C87.8443 119.76 88.287 119.568 88.6496 119.184C89.023 118.8 89.2096 118.251 89.2096 117.536C89.2096 116.821 89.0283 116.272 88.6656 115.888C88.3136 115.504 87.8763 115.312 87.3536 115.312C86.8203 115.312 86.3776 115.504 86.0256 115.888C85.6736 116.261 85.4976 116.811 85.4976 117.536C85.4976 118.251 85.6683 118.8 86.0096 119.184C86.3616 119.568 86.799 119.76 87.3216 119.76ZM96.1811 114.56C96.5011 114.069 96.9011 113.685 97.3811 113.408C97.8611 113.12 98.3945 112.976 98.9811 112.976V115.872H98.2291C97.5465 115.872 97.0345 116.021 96.6931 116.32C96.3518 116.608 96.1811 117.12 96.1811 117.856V122H93.4451V113.072H96.1811V114.56ZM101.665 112.144C101.185 112.144 100.79 112.005 100.481 111.728C100.182 111.44 100.033 111.088 100.033 110.672C100.033 110.245 100.182 109.893 100.481 109.616C100.79 109.328 101.185 109.184 101.665 109.184C102.134 109.184 102.518 109.328 102.817 109.616C103.126 109.893 103.281 110.245 103.281 110.672C103.281 111.088 103.126 111.44 102.817 111.728C102.518 112.005 102.134 112.144 101.665 112.144ZM103.025 113.072V122H100.289V113.072H103.025ZM104.464 117.52C104.464 116.603 104.634 115.797 104.976 115.104C105.328 114.411 105.802 113.877 106.4 113.504C106.997 113.131 107.664 112.944 108.4 112.944C109.029 112.944 109.578 113.072 110.048 113.328C110.528 113.584 110.896 113.92 111.152 114.336V113.072H113.888V122H111.152V120.736C110.885 121.152 110.512 121.488 110.032 121.744C109.562 122 109.013 122.128 108.384 122.128C107.658 122.128 106.997 121.941 106.4 121.568C105.802 121.184 105.328 120.645 104.976 119.952C104.634 119.248 104.464 118.437 104.464 117.52ZM111.152 117.536C111.152 116.853 110.96 116.315 110.576 115.92C110.202 115.525 109.744 115.328 109.2 115.328C108.656 115.328 108.192 115.525 107.808 115.92C107.434 116.304 107.248 116.837 107.248 117.52C107.248 118.203 107.434 118.747 107.808 119.152C108.192 119.547 108.656 119.744 109.2 119.744C109.744 119.744 110.202 119.547 110.576 119.152C110.96 118.757 111.152 118.219 111.152 117.536ZM119.499 122.128C118.72 122.128 118.027 121.995 117.419 121.728C116.811 121.461 116.331 121.099 115.979 120.64C115.627 120.171 115.43 119.648 115.387 119.072H118.091C118.123 119.381 118.267 119.632 118.523 119.824C118.779 120.016 119.094 120.112 119.467 120.112C119.808 120.112 120.07 120.048 120.251 119.92C120.443 119.781 120.539 119.605 120.539 119.392C120.539 119.136 120.406 118.949 120.139 118.832C119.872 118.704 119.44 118.565 118.843 118.416C118.203 118.267 117.67 118.112 117.243 117.952C116.816 117.781 116.448 117.52 116.139 117.168C115.83 116.805 115.675 116.32 115.675 115.712C115.675 115.2 115.814 114.736 116.091 114.32C116.379 113.893 116.795 113.557 117.339 113.312C117.894 113.067 118.55 112.944 119.307 112.944C120.427 112.944 121.307 113.221 121.947 113.776C122.598 114.331 122.971 115.067 123.067 115.984H120.539C120.496 115.675 120.358 115.429 120.123 115.248C119.899 115.067 119.6 114.976 119.227 114.976C118.907 114.976 118.662 115.04 118.491 115.168C118.32 115.285 118.235 115.451 118.235 115.664C118.235 115.92 118.368 116.112 118.635 116.24C118.912 116.368 119.339 116.496 119.915 116.624C120.576 116.795 121.115 116.965 121.531 117.136C121.947 117.296 122.31 117.563 122.619 117.936C122.939 118.299 123.104 118.789 123.115 119.408C123.115 119.931 122.966 120.4 122.667 120.816C122.379 121.221 121.958 121.541 121.403 121.776C120.859 122.011 120.224 122.128 119.499 122.128Z" fill="#EB9B00"/>
<path d="M40.688 162.112C40.688 163.04 40.368 163.813 39.728 164.432C39.0987 165.04 38.1333 165.344 36.832 165.344H34.688V170H33.232V158.848H36.832C38.0907 158.848 39.0453 159.152 39.696 159.76C40.3573 160.368 40.688 161.152 40.688 162.112ZM36.832 164.144C37.6427 164.144 38.24 163.968 38.624 163.616C39.008 163.264 39.2 162.763 39.2 162.112C39.2 160.736 38.4107 160.048 36.832 160.048H34.688V164.144H36.832ZM48.3696 170L45.7136 165.44H43.9536V170H42.4976V158.848H46.0976C46.9403 158.848 47.6496 158.992 48.2256 159.28C48.8123 159.568 49.2496 159.957 49.5376 160.448C49.8256 160.939 49.9696 161.499 49.9696 162.128C49.9696 162.896 49.7456 163.573 49.2976 164.16C48.8603 164.747 48.199 165.136 47.3136 165.328L50.1136 170H48.3696ZM43.9536 164.272H46.0976C46.887 164.272 47.479 164.08 47.8736 163.696C48.2683 163.301 48.4656 162.779 48.4656 162.128C48.4656 161.467 48.2683 160.955 47.8736 160.592C47.4896 160.229 46.8976 160.048 46.0976 160.048H43.9536V164.272ZM57.288 170.112C56.2533 170.112 55.3093 169.872 54.456 169.392C53.6027 168.901 52.9253 168.224 52.424 167.36C51.9333 166.485 51.688 165.504 51.688 164.416C51.688 163.328 51.9333 162.352 52.424 161.488C52.9253 160.613 53.6027 159.936 54.456 159.456C55.3093 158.965 56.2533 158.72 57.288 158.72C58.3333 158.72 59.2827 158.965 60.136 159.456C60.9893 159.936 61.6613 160.608 62.152 161.472C62.6427 162.336 62.888 163.317 62.888 164.416C62.888 165.515 62.6427 166.496 62.152 167.36C61.6613 168.224 60.9893 168.901 60.136 169.392C59.2827 169.872 58.3333 170.112 57.288 170.112ZM57.288 168.848C58.0667 168.848 58.7653 168.667 59.384 168.304C60.0133 167.941 60.504 167.424 60.856 166.752C61.2187 166.08 61.4 165.301 61.4 164.416C61.4 163.52 61.2187 162.741 60.856 162.08C60.504 161.408 60.0187 160.891 59.4 160.528C58.7813 160.165 58.0773 159.984 57.288 159.984C56.4987 159.984 55.7947 160.165 55.176 160.528C54.5573 160.891 54.0667 161.408 53.704 162.08C53.352 162.741 53.176 163.52 53.176 164.416C53.176 165.301 53.352 166.08 53.704 166.752C54.0667 167.424 54.5573 167.941 55.176 168.304C55.8053 168.667 56.5093 168.848 57.288 168.848ZM73.2581 162.08C72.9488 161.429 72.5008 160.928 71.9141 160.576C71.3275 160.213 70.6448 160.032 69.8661 160.032C69.0875 160.032 68.3835 160.213 67.7541 160.576C67.1355 160.928 66.6448 161.44 66.2821 162.112C65.9301 162.773 65.7541 163.541 65.7541 164.416C65.7541 165.291 65.9301 166.059 66.2821 166.72C66.6448 167.381 67.1355 167.893 67.7541 168.256C68.3835 168.608 69.0875 168.784 69.8661 168.784C70.9541 168.784 71.8501 168.459 72.5541 167.808C73.2581 167.157 73.6688 166.277 73.7861 165.168H69.3381V163.984H75.3381V165.104C75.2528 166.021 74.9648 166.864 74.4741 167.632C73.9835 168.389 73.3381 168.992 72.5381 169.44C71.7381 169.877 70.8475 170.096 69.8661 170.096C68.8315 170.096 67.8875 169.856 67.0341 169.376C66.1808 168.885 65.5035 168.208 65.0021 167.344C64.5115 166.48 64.2661 165.504 64.2661 164.416C64.2661 163.328 64.5115 162.352 65.0021 161.488C65.5035 160.613 66.1808 159.936 67.0341 159.456C67.8875 158.965 68.8315 158.72 69.8661 158.72C71.0501 158.72 72.0955 159.013 73.0021 159.6C73.9195 160.187 74.5861 161.013 75.0021 162.08H73.2581ZM83.1353 170L80.4793 165.44H78.7193V170H77.2633V158.848H80.8633C81.7059 158.848 82.4153 158.992 82.9913 159.28C83.5779 159.568 84.0153 159.957 84.3033 160.448C84.5913 160.939 84.7353 161.499 84.7353 162.128C84.7353 162.896 84.5113 163.573 84.0633 164.16C83.6259 164.747 82.9646 165.136 82.0793 165.328L84.8793 170H83.1353ZM78.7193 164.272H80.8633C81.6526 164.272 82.2446 164.08 82.6393 163.696C83.0339 163.301 83.2313 162.779 83.2313 162.128C83.2313 161.467 83.0339 160.955 82.6393 160.592C82.2553 160.229 81.6633 160.048 80.8633 160.048H78.7193V164.272ZM93.5896 167.52H88.7256L87.8296 170H86.2936L90.3256 158.912H92.0056L96.0216 170H94.4856L93.5896 167.52ZM93.1736 166.336L91.1576 160.704L89.1416 166.336H93.1736ZM109.091 158.928V170H107.635V161.744L103.955 170H102.931L99.2349 161.728V170H97.7789V158.928H99.3469L103.443 168.08L107.539 158.928H109.091ZM118.152 167.52H113.288L112.392 170H110.856L114.888 158.912H116.568L120.584 170H119.048L118.152 167.52ZM117.736 166.336L115.72 160.704L113.704 166.336H117.736ZM127.365 168.832C128.176 168.832 128.869 168.656 129.445 168.304C130.032 167.941 130.48 167.424 130.789 166.752H132.533C132.149 167.733 131.552 168.512 130.741 169.088C129.941 169.664 129.003 169.995 127.925 170.08V170.928C128.555 170.917 129.056 171.051 129.429 171.328C129.803 171.605 129.989 172 129.989 172.512C129.989 173.013 129.808 173.413 129.445 173.712C129.083 174.011 128.613 174.16 128.037 174.16H126.197V173.216H127.749C128.101 173.216 128.357 173.163 128.517 173.056C128.688 172.949 128.773 172.768 128.773 172.512C128.773 172.267 128.688 172.091 128.517 171.984C128.357 171.877 128.101 171.824 127.749 171.824H126.949V170.08C125.979 170.016 125.099 169.739 124.309 169.248C123.531 168.747 122.917 168.08 122.469 167.248C122.021 166.405 121.797 165.461 121.797 164.416C121.797 163.328 122.043 162.352 122.533 161.488C123.024 160.613 123.691 159.931 124.533 159.44C125.387 158.949 126.331 158.704 127.365 158.704C128.581 158.704 129.643 158.997 130.549 159.584C131.456 160.171 132.117 161.003 132.533 162.08H130.789C130.48 161.408 130.032 160.891 129.445 160.528C128.869 160.165 128.176 159.984 127.365 159.984C126.587 159.984 125.888 160.165 125.269 160.528C124.651 160.891 124.165 161.408 123.813 162.08C123.461 162.741 123.285 163.52 123.285 164.416C123.285 165.301 123.461 166.08 123.813 166.752C124.165 167.413 124.651 167.925 125.269 168.288C125.888 168.651 126.587 168.832 127.365 168.832ZM141.293 167.52H136.429L135.533 170H133.997L138.029 158.912H139.709L143.725 170H142.189L141.293 167.52ZM140.877 166.336L138.861 160.704L136.845 166.336H140.877ZM136.509 157.968C136.583 157.424 136.759 157.008 137.037 156.72C137.325 156.432 137.682 156.288 138.109 156.288C138.311 156.288 138.482 156.325 138.621 156.4C138.77 156.464 138.946 156.56 139.149 156.688C139.298 156.795 139.431 156.88 139.549 156.944C139.666 156.997 139.794 157.024 139.933 157.024C140.114 157.024 140.269 156.965 140.397 156.848C140.525 156.731 140.605 156.56 140.637 156.336H141.469C141.405 156.869 141.229 157.28 140.941 157.568C140.653 157.856 140.295 158 139.869 158C139.666 158 139.485 157.968 139.325 157.904C139.175 157.829 139.005 157.723 138.813 157.584C138.642 157.477 138.503 157.397 138.397 157.344C138.301 157.291 138.183 157.264 138.045 157.264C137.863 157.264 137.709 157.323 137.581 157.44C137.463 157.557 137.389 157.733 137.357 157.968H136.509ZM150.538 170.112C149.503 170.112 148.559 169.872 147.706 169.392C146.853 168.901 146.175 168.224 145.674 167.36C145.183 166.485 144.938 165.504 144.938 164.416C144.938 163.328 145.183 162.352 145.674 161.488C146.175 160.613 146.853 159.936 147.706 159.456C148.559 158.965 149.503 158.72 150.538 158.72C151.583 158.72 152.533 158.965 153.386 159.456C154.239 159.936 154.911 160.608 155.402 161.472C155.893 162.336 156.138 163.317 156.138 164.416C156.138 165.515 155.893 166.496 155.402 167.36C154.911 168.224 154.239 168.901 153.386 169.392C152.533 169.872 151.583 170.112 150.538 170.112ZM150.538 168.848C151.317 168.848 152.015 168.667 152.634 168.304C153.263 167.941 153.754 167.424 154.106 166.752C154.469 166.08 154.65 165.301 154.65 164.416C154.65 163.52 154.469 162.741 154.106 162.08C153.754 161.408 153.269 160.891 152.65 160.528C152.031 160.165 151.327 159.984 150.538 159.984C149.749 159.984 149.045 160.165 148.426 160.528C147.807 160.891 147.317 161.408 146.954 162.08C146.602 162.741 146.426 163.52 146.426 164.416C146.426 165.301 146.602 166.08 146.954 166.752C147.317 167.424 147.807 167.941 148.426 168.304C149.055 168.667 149.759 168.848 150.538 168.848Z" fill="url(#paint1_linear_126_5273)"/>
<path d="M39.536 214.848V216.032H34.688V219.792H38.624V220.976H34.688V226H33.232V214.848H39.536ZM47.1665 226L44.5105 221.44H42.7505V226H41.2945V214.848H44.8945C45.7372 214.848 46.4465 214.992 47.0225 215.28C47.6092 215.568 48.0465 215.957 48.3345 216.448C48.6225 216.939 48.7665 217.499 48.7665 218.128C48.7665 218.896 48.5425 219.573 48.0945 220.16C47.6572 220.747 46.9958 221.136 46.1105 221.328L48.9105 226H47.1665ZM42.7505 220.272H44.8945C45.6838 220.272 46.2758 220.08 46.6705 219.696C47.0652 219.301 47.2625 218.779 47.2625 218.128C47.2625 217.467 47.0652 216.955 46.6705 216.592C46.2865 216.229 45.6945 216.048 44.8945 216.048H42.7505V220.272ZM56.0849 226.112C55.0502 226.112 54.1062 225.872 53.2529 225.392C52.3995 224.901 51.7222 224.224 51.2209 223.36C50.7302 222.485 50.4849 221.504 50.4849 220.416C50.4849 219.328 50.7302 218.352 51.2209 217.488C51.7222 216.613 52.3995 215.936 53.2529 215.456C54.1062 214.965 55.0502 214.72 56.0849 214.72C57.1302 214.72 58.0795 214.965 58.9329 215.456C59.7862 215.936 60.4582 216.608 60.9489 217.472C61.4395 218.336 61.6849 219.317 61.6849 220.416C61.6849 221.515 61.4395 222.496 60.9489 223.36C60.4582 224.224 59.7862 224.901 58.9329 225.392C58.0795 225.872 57.1302 226.112 56.0849 226.112ZM56.0849 224.848C56.8635 224.848 57.5622 224.667 58.1809 224.304C58.8102 223.941 59.3009 223.424 59.6529 222.752C60.0155 222.08 60.1969 221.301 60.1969 220.416C60.1969 219.52 60.0155 218.741 59.6529 218.08C59.3009 217.408 58.8155 216.891 58.1969 216.528C57.5782 216.165 56.8742 215.984 56.0849 215.984C55.2955 215.984 54.5915 216.165 53.9729 216.528C53.3542 216.891 52.8635 217.408 52.5009 218.08C52.1489 218.741 51.9729 219.52 51.9729 220.416C51.9729 221.301 52.1489 222.08 52.5009 222.752C52.8635 223.424 53.3542 223.941 53.9729 224.304C54.6022 224.667 55.3062 224.848 56.0849 224.848ZM72.375 226H70.919L65.063 217.12V226H63.607V214.832H65.063L70.919 223.696V214.832H72.375V226ZM81.721 214.848V216.032H78.681V226H77.225V216.032H74.169V214.848H81.721ZM89.5933 219.52V220.752H83.2093V219.52H89.5933ZM93.7818 216.032V219.76H97.8458V220.96H93.7818V224.8H98.3258V226H92.3258V214.832H98.3258V216.032H93.7818ZM109.297 226H107.841L101.985 217.12V226H100.529V214.832H101.985L107.841 223.696V214.832H109.297V226ZM115.251 214.848C116.467 214.848 117.518 215.077 118.403 215.536C119.299 215.984 119.982 216.629 120.451 217.472C120.931 218.315 121.171 219.307 121.171 220.448C121.171 221.589 120.931 222.581 120.451 223.424C119.982 224.256 119.299 224.896 118.403 225.344C117.518 225.781 116.467 226 115.251 226H111.779V214.848H115.251ZM115.251 224.8C116.691 224.8 117.79 224.421 118.547 223.664C119.304 222.896 119.683 221.824 119.683 220.448C119.683 219.061 119.299 217.979 118.531 217.2C117.774 216.421 116.68 216.032 115.251 216.032H113.235V224.8H115.251Z" fill="url(#paint2_linear_126_5273)"/>
<path d="M34.688 270.848V282H33.232V270.848H34.688ZM45.9375 282H44.4815L38.6255 273.12V282H37.1695V270.832H38.6255L44.4815 279.696V270.832H45.9375V282ZM54.7235 270.848V272.032H49.8755V275.792H53.8115V276.976H49.8755V282H48.4195V270.848H54.7235ZM62.354 282L59.698 277.44H57.938V282H56.482V270.848H60.082C60.9247 270.848 61.634 270.992 62.21 271.28C62.7967 271.568 63.234 271.957 63.522 272.448C63.81 272.939 63.954 273.499 63.954 274.128C63.954 274.896 63.73 275.573 63.282 276.16C62.8447 276.747 62.1833 277.136 61.298 277.328L64.098 282H62.354ZM57.938 276.272H60.082C60.8713 276.272 61.4633 276.08 61.858 275.696C62.2527 275.301 62.45 274.779 62.45 274.128C62.45 273.467 62.2527 272.955 61.858 272.592C61.474 272.229 60.882 272.048 60.082 272.048H57.938V276.272ZM72.8084 279.52H67.9444L67.0484 282H65.5124L69.5444 270.912H71.2244L75.2404 282H73.7044L72.8084 279.52ZM72.3924 278.336L70.3764 272.704L68.3604 278.336H72.3924ZM78.4536 272.032V275.76H82.5176V276.96H78.4536V280.8H82.9976V282H76.9976V270.832H82.9976V272.032H78.4536ZM88.7368 282.112C88.0008 282.112 87.3394 281.984 86.7528 281.728C86.1768 281.461 85.7234 281.099 85.3928 280.64C85.0621 280.171 84.8914 279.632 84.8808 279.024H86.4328C86.4861 279.547 86.6994 279.989 87.0728 280.352C87.4568 280.704 88.0114 280.88 88.7368 280.88C89.4301 280.88 89.9741 280.709 90.3688 280.368C90.7741 280.016 90.9768 279.568 90.9768 279.024C90.9768 278.597 90.8594 278.251 90.6248 277.984C90.3901 277.717 90.0968 277.515 89.7448 277.376C89.3928 277.237 88.9181 277.088 88.3208 276.928C87.5848 276.736 86.9928 276.544 86.5448 276.352C86.1074 276.16 85.7288 275.861 85.4088 275.456C85.0994 275.04 84.9448 274.485 84.9448 273.792C84.9448 273.184 85.0994 272.645 85.4088 272.176C85.7181 271.707 86.1501 271.344 86.7048 271.088C87.2701 270.832 87.9154 270.704 88.6408 270.704C89.6861 270.704 90.5394 270.965 91.2008 271.488C91.8728 272.011 92.2514 272.704 92.3368 273.568H90.7368C90.6834 273.141 90.4594 272.768 90.0648 272.448C89.6701 272.117 89.1474 271.952 88.4968 271.952C87.8888 271.952 87.3928 272.112 87.0088 272.432C86.6248 272.741 86.4328 273.179 86.4328 273.744C86.4328 274.149 86.5448 274.48 86.7688 274.736C87.0034 274.992 87.2861 275.189 87.6168 275.328C87.9581 275.456 88.4328 275.605 89.0408 275.776C89.7768 275.979 90.3688 276.181 90.8168 276.384C91.2648 276.576 91.6488 276.88 91.9688 277.296C92.2888 277.701 92.4488 278.256 92.4488 278.96C92.4488 279.504 92.3048 280.016 92.0168 280.496C91.7288 280.976 91.3021 281.365 90.7368 281.664C90.1714 281.963 89.5048 282.112 88.7368 282.112ZM101.455 270.848V272.032H98.4154V282H96.9594V272.032H93.9034V270.848H101.455ZM109.12 282L106.464 277.44H104.704V282H103.248V270.848H106.848C107.69 270.848 108.4 270.992 108.976 271.28C109.562 271.568 110 271.957 110.288 272.448C110.576 272.939 110.72 273.499 110.72 274.128C110.72 274.896 110.496 275.573 110.048 276.16C109.61 276.747 108.949 277.136 108.064 277.328L110.864 282H109.12ZM104.704 276.272H106.848C107.637 276.272 108.229 276.08 108.624 275.696C109.018 275.301 109.216 274.779 109.216 274.128C109.216 273.467 109.018 272.955 108.624 272.592C108.24 272.229 107.648 272.048 106.848 272.048H104.704V276.272ZM114.406 270.848V277.904C114.406 278.896 114.646 279.632 115.126 280.112C115.617 280.592 116.294 280.832 117.158 280.832C118.011 280.832 118.678 280.592 119.158 280.112C119.649 279.632 119.894 278.896 119.894 277.904V270.848H121.35V277.888C121.35 278.816 121.163 279.6 120.79 280.24C120.417 280.869 119.91 281.339 119.27 281.648C118.641 281.957 117.931 282.112 117.142 282.112C116.353 282.112 115.638 281.957 114.998 281.648C114.369 281.339 113.867 280.869 113.494 280.24C113.131 279.6 112.95 278.816 112.95 277.888V270.848H114.406ZM130.643 270.848V272.032H127.603V282H126.147V272.032H123.091V270.848H130.643ZM133.859 270.848V277.904C133.859 278.896 134.099 279.632 134.579 280.112C135.07 280.592 135.747 280.832 136.611 280.832C137.464 280.832 138.131 280.592 138.611 280.112C139.102 279.632 139.347 278.896 139.347 277.904V270.848H140.803V277.888C140.803 278.816 140.616 279.6 140.243 280.24C139.87 280.869 139.363 281.339 138.723 281.648C138.094 281.957 137.384 282.112 136.595 282.112C135.806 282.112 135.091 281.957 134.451 281.648C133.822 281.339 133.32 280.869 132.947 280.24C132.584 279.6 132.403 278.816 132.403 277.888V270.848H133.859ZM149.104 282L146.448 277.44H144.688V282H143.232V270.848H146.832C147.675 270.848 148.384 270.992 148.96 271.28C149.547 271.568 149.984 271.957 150.272 272.448C150.56 272.939 150.704 273.499 150.704 274.128C150.704 274.896 150.48 275.573 150.032 276.16C149.595 276.747 148.933 277.136 148.048 277.328L150.848 282H149.104ZM144.688 276.272H146.832C147.621 276.272 148.213 276.08 148.608 275.696C149.003 275.301 149.2 274.779 149.2 274.128C149.2 273.467 149.003 272.955 148.608 272.592C148.224 272.229 147.632 272.048 146.832 272.048H144.688V276.272ZM159.558 279.52H154.694L153.798 282H152.262L156.294 270.912H157.974L161.99 282H160.454L159.558 279.52ZM159.142 278.336L157.126 272.704L155.11 278.336H159.142Z" fill="url(#paint3_linear_126_5273)"/>
<path d="M38.816 332.256C39.2213 332.32 39.5893 332.485 39.92 332.752C40.2613 333.019 40.528 333.349 40.72 333.744C40.9227 334.139 41.024 334.56 41.024 335.008C41.024 335.573 40.88 336.085 40.592 336.544C40.304 336.992 39.8827 337.349 39.328 337.616C38.784 337.872 38.1387 338 37.392 338H33.232V326.848H37.232C37.9893 326.848 38.6347 326.976 39.168 327.232C39.7013 327.477 40.1013 327.813 40.368 328.24C40.6347 328.667 40.768 329.147 40.768 329.68C40.768 330.341 40.5867 330.891 40.224 331.328C39.872 331.755 39.4027 332.064 38.816 332.256ZM34.688 331.664H37.136C37.8187 331.664 38.3467 331.504 38.72 331.184C39.0933 330.864 39.28 330.421 39.28 329.856C39.28 329.291 39.0933 328.848 38.72 328.528C38.3467 328.208 37.808 328.048 37.104 328.048H34.688V331.664ZM37.264 336.8C37.9893 336.8 38.5547 336.629 38.96 336.288C39.3653 335.947 39.568 335.472 39.568 334.864C39.568 334.245 39.3547 333.76 38.928 333.408C38.5013 333.045 37.9307 332.864 37.216 332.864H34.688V336.8H37.264ZM44.4685 326.848V333.904C44.4685 334.896 44.7085 335.632 45.1885 336.112C45.6792 336.592 46.3565 336.832 47.2205 336.832C48.0738 336.832 48.7405 336.592 49.2205 336.112C49.7112 335.632 49.9565 334.896 49.9565 333.904V326.848H51.4125V333.888C51.4125 334.816 51.2258 335.6 50.8525 336.24C50.4792 336.869 49.9725 337.339 49.3325 337.648C48.7032 337.957 47.9938 338.112 47.2045 338.112C46.4152 338.112 45.7005 337.957 45.0605 337.648C44.4312 337.339 43.9298 336.869 43.5565 336.24C43.1938 335.6 43.0125 334.816 43.0125 333.888V326.848H44.4685ZM57.3774 338.112C56.6414 338.112 55.98 337.984 55.3934 337.728C54.8174 337.461 54.364 337.099 54.0334 336.64C53.7027 336.171 53.532 335.632 53.5214 335.024H55.0734C55.1267 335.547 55.34 335.989 55.7134 336.352C56.0974 336.704 56.652 336.88 57.3774 336.88C58.0707 336.88 58.6147 336.709 59.0094 336.368C59.4147 336.016 59.6174 335.568 59.6174 335.024C59.6174 334.597 59.5 334.251 59.2654 333.984C59.0307 333.717 58.7374 333.515 58.3854 333.376C58.0334 333.237 57.5587 333.088 56.9614 332.928C56.2254 332.736 55.6334 332.544 55.1854 332.352C54.748 332.16 54.3694 331.861 54.0494 331.456C53.74 331.04 53.5854 330.485 53.5854 329.792C53.5854 329.184 53.74 328.645 54.0494 328.176C54.3587 327.707 54.7907 327.344 55.3454 327.088C55.9107 326.832 56.556 326.704 57.2814 326.704C58.3267 326.704 59.18 326.965 59.8414 327.488C60.5134 328.011 60.892 328.704 60.9774 329.568H59.3774C59.324 329.141 59.1 328.768 58.7054 328.448C58.3107 328.117 57.788 327.952 57.1374 327.952C56.5294 327.952 56.0334 328.112 55.6494 328.432C55.2654 328.741 55.0734 329.179 55.0734 329.744C55.0734 330.149 55.1854 330.48 55.4094 330.736C55.644 330.992 55.9267 331.189 56.2574 331.328C56.5987 331.456 57.0734 331.605 57.6814 331.776C58.4174 331.979 59.0094 332.181 59.4574 332.384C59.9054 332.576 60.2894 332.88 60.6094 333.296C60.9294 333.701 61.0894 334.256 61.0894 334.96C61.0894 335.504 60.9454 336.016 60.6574 336.496C60.3694 336.976 59.9427 337.365 59.3774 337.664C58.812 337.963 58.1454 338.112 57.3774 338.112ZM64.688 326.848V338H63.232V326.848H64.688ZM75.9375 338H74.4815L68.6255 329.12V338H67.1695V326.832H68.6255L74.4815 335.696V326.832H75.9375V338ZM79.8755 328.032V331.76H83.9395V332.96H79.8755V336.8H84.4195V338H78.4195V326.832H84.4195V328.032H79.8755ZM90.1586 338.112C89.4226 338.112 88.7613 337.984 88.1746 337.728C87.5986 337.461 87.1453 337.099 86.8146 336.64C86.484 336.171 86.3133 335.632 86.3026 335.024H87.8546C87.908 335.547 88.1213 335.989 88.4946 336.352C88.8786 336.704 89.4333 336.88 90.1586 336.88C90.852 336.88 91.396 336.709 91.7906 336.368C92.196 336.016 92.3986 335.568 92.3986 335.024C92.3986 334.597 92.2813 334.251 92.0466 333.984C91.812 333.717 91.5186 333.515 91.1666 333.376C90.8146 333.237 90.34 333.088 89.7426 332.928C89.0066 332.736 88.4146 332.544 87.9666 332.352C87.5293 332.16 87.1506 331.861 86.8306 331.456C86.5213 331.04 86.3666 330.485 86.3666 329.792C86.3666 329.184 86.5213 328.645 86.8306 328.176C87.14 327.707 87.572 327.344 88.1266 327.088C88.692 326.832 89.3373 326.704 90.0626 326.704C91.108 326.704 91.9613 326.965 92.6226 327.488C93.2946 328.011 93.6733 328.704 93.7586 329.568H92.1586C92.1053 329.141 91.8813 328.768 91.4866 328.448C91.092 328.117 90.5693 327.952 89.9186 327.952C89.3106 327.952 88.8146 328.112 88.4306 328.432C88.0466 328.741 87.8546 329.179 87.8546 329.744C87.8546 330.149 87.9666 330.48 88.1906 330.736C88.4253 330.992 88.708 331.189 89.0386 331.328C89.38 331.456 89.8546 331.605 90.4626 331.776C91.1986 331.979 91.7906 332.181 92.2386 332.384C92.6866 332.576 93.0706 332.88 93.3906 333.296C93.7106 333.701 93.8706 334.256 93.8706 334.96C93.8706 335.504 93.7266 336.016 93.4386 336.496C93.1506 336.976 92.724 337.365 92.1586 337.664C91.5933 337.963 90.9266 338.112 90.1586 338.112ZM99.5493 338.112C98.8133 338.112 98.1519 337.984 97.5653 337.728C96.9893 337.461 96.5359 337.099 96.2053 336.64C95.8746 336.171 95.7039 335.632 95.6933 335.024H97.2453C97.2986 335.547 97.5119 335.989 97.8853 336.352C98.2693 336.704 98.8239 336.88 99.5493 336.88C100.243 336.88 100.787 336.709 101.181 336.368C101.587 336.016 101.789 335.568 101.789 335.024C101.789 334.597 101.672 334.251 101.437 333.984C101.203 333.717 100.909 333.515 100.557 333.376C100.205 333.237 99.7306 333.088 99.1333 332.928C98.3973 332.736 97.8053 332.544 97.3573 332.352C96.9199 332.16 96.5413 331.861 96.2213 331.456C95.9119 331.04 95.7573 330.485 95.7573 329.792C95.7573 329.184 95.9119 328.645 96.2213 328.176C96.5306 327.707 96.9626 327.344 97.5173 327.088C98.0826 326.832 98.7279 326.704 99.4533 326.704C100.499 326.704 101.352 326.965 102.013 327.488C102.685 328.011 103.064 328.704 103.149 329.568H101.549C101.496 329.141 101.272 328.768 100.877 328.448C100.483 328.117 99.9599 327.952 99.3093 327.952C98.7013 327.952 98.2053 328.112 97.8213 328.432C97.4373 328.741 97.2453 329.179 97.2453 329.744C97.2453 330.149 97.3573 330.48 97.5813 330.736C97.8159 330.992 98.0986 331.189 98.4293 331.328C98.7706 331.456 99.2453 331.605 99.8533 331.776C100.589 331.979 101.181 332.181 101.629 332.384C102.077 332.576 102.461 332.88 102.781 333.296C103.101 333.701 103.261 334.256 103.261 334.96C103.261 335.504 103.117 336.016 102.829 336.496C102.541 336.976 102.115 337.365 101.549 337.664C100.984 337.963 100.317 338.112 99.5493 338.112Z" fill="url(#paint4_linear_126_5273)"/>
<path d="M36.704 382.848C37.92 382.848 38.9707 383.077 39.856 383.536C40.752 383.984 41.4347 384.629 41.904 385.472C42.384 386.315 42.624 387.307 42.624 388.448C42.624 389.589 42.384 390.581 41.904 391.424C41.4347 392.256 40.752 392.896 39.856 393.344C38.9707 393.781 37.92 394 36.704 394H33.232V382.848H36.704ZM36.704 392.8C38.144 392.8 39.2427 392.421 40 391.664C40.7573 390.896 41.136 389.824 41.136 388.448C41.136 387.061 40.752 385.979 39.984 385.2C39.2267 384.421 38.1333 384.032 36.704 384.032H34.688V392.8H36.704ZM46.0005 384.032V387.76H50.0645V388.96H46.0005V392.8H50.5445V394H44.5445V382.832H50.5445V384.032H46.0005ZM56.2836 394.112C55.5476 394.112 54.8863 393.984 54.2996 393.728C53.7236 393.461 53.2703 393.099 52.9396 392.64C52.609 392.171 52.4383 391.632 52.4276 391.024H53.9796C54.033 391.547 54.2463 391.989 54.6196 392.352C55.0036 392.704 55.5583 392.88 56.2836 392.88C56.977 392.88 57.521 392.709 57.9156 392.368C58.321 392.016 58.5236 391.568 58.5236 391.024C58.5236 390.597 58.4063 390.251 58.1716 389.984C57.937 389.717 57.6436 389.515 57.2916 389.376C56.9396 389.237 56.465 389.088 55.8676 388.928C55.1316 388.736 54.5396 388.544 54.0916 388.352C53.6543 388.16 53.2756 387.861 52.9556 387.456C52.6463 387.04 52.4916 386.485 52.4916 385.792C52.4916 385.184 52.6463 384.645 52.9556 384.176C53.265 383.707 53.697 383.344 54.2516 383.088C54.817 382.832 55.4623 382.704 56.1876 382.704C57.233 382.704 58.0863 382.965 58.7476 383.488C59.4196 384.011 59.7983 384.704 59.8836 385.568H58.2836C58.2303 385.141 58.0063 384.768 57.6116 384.448C57.217 384.117 56.6943 383.952 56.0436 383.952C55.4356 383.952 54.9396 384.112 54.5556 384.432C54.1716 384.741 53.9796 385.179 53.9796 385.744C53.9796 386.149 54.0916 386.48 54.3156 386.736C54.5503 386.992 54.833 387.189 55.1636 387.328C55.505 387.456 55.9796 387.605 56.5876 387.776C57.3236 387.979 57.9156 388.181 58.3636 388.384C58.8116 388.576 59.1956 388.88 59.5156 389.296C59.8356 389.701 59.9956 390.256 59.9956 390.96C59.9956 391.504 59.8516 392.016 59.5636 392.496C59.2756 392.976 58.849 393.365 58.2836 393.664C57.7183 393.963 57.0516 394.112 56.2836 394.112ZM63.5943 382.848V394H62.1383V382.848H63.5943ZM74.5238 386.08C74.2144 385.429 73.7664 384.928 73.1798 384.576C72.5931 384.213 71.9104 384.032 71.1318 384.032C70.3531 384.032 69.6491 384.213 69.0198 384.576C68.4011 384.928 67.9104 385.44 67.5478 386.112C67.1958 386.773 67.0198 387.541 67.0198 388.416C67.0198 389.291 67.1958 390.059 67.5478 390.72C67.9104 391.381 68.4011 391.893 69.0198 392.256C69.6491 392.608 70.3531 392.784 71.1318 392.784C72.2198 392.784 73.1158 392.459 73.8198 391.808C74.5238 391.157 74.9344 390.277 75.0518 389.168H70.6038V387.984H76.6038V389.104C76.5184 390.021 76.2304 390.864 75.7398 391.632C75.2491 392.389 74.6038 392.992 73.8038 393.44C73.0038 393.877 72.1131 394.096 71.1318 394.096C70.0971 394.096 69.1531 393.856 68.2998 393.376C67.4464 392.885 66.7691 392.208 66.2678 391.344C65.7771 390.48 65.5318 389.504 65.5318 388.416C65.5318 387.328 65.7771 386.352 66.2678 385.488C66.7691 384.613 67.4464 383.936 68.2998 383.456C69.1531 382.965 70.0971 382.72 71.1318 382.72C72.3158 382.72 73.3611 383.013 74.2678 383.6C75.1851 384.187 75.8518 385.013 76.2678 386.08H74.5238ZM87.2969 394H85.8409L79.9849 385.12V394H78.5289V382.832H79.9849L85.8409 391.696V382.832H87.2969V394ZM102.605 394L101.149 392.528C100.605 393.093 100.023 393.515 99.4045 393.792C98.7858 394.059 98.0872 394.192 97.3085 394.192C96.5405 394.192 95.8578 394.053 95.2605 393.776C94.6738 393.499 94.2152 393.104 93.8845 392.592C93.5645 392.08 93.4045 391.483 93.4045 390.8C93.4045 390.021 93.6232 389.339 94.0605 388.752C94.5085 388.155 95.1645 387.685 96.0285 387.344C95.6872 386.939 95.4418 386.565 95.2925 386.224C95.1432 385.883 95.0685 385.509 95.0685 385.104C95.0685 384.635 95.1858 384.213 95.4205 383.84C95.6658 383.456 96.0125 383.157 96.4605 382.944C96.9085 382.731 97.4258 382.624 98.0125 382.624C98.5885 382.624 99.0898 382.736 99.5165 382.96C99.9432 383.184 100.263 383.499 100.477 383.904C100.69 384.299 100.786 384.741 100.765 385.232H99.3085C99.3192 384.795 99.1965 384.453 98.9405 384.208C98.6845 383.952 98.3538 383.824 97.9485 383.824C97.5218 383.824 97.1752 383.947 96.9085 384.192C96.6525 384.427 96.5245 384.731 96.5245 385.104C96.5245 385.424 96.6098 385.733 96.7805 386.032C96.9618 386.331 97.2605 386.699 97.6765 387.136L101.005 390.48L101.293 390.032L102.381 388.208H103.949L102.637 390.48C102.455 390.8 102.242 391.136 101.997 391.488L104.509 394H102.605ZM97.3085 392.944C97.8845 392.944 98.4018 392.832 98.8605 392.608C99.3298 392.384 99.7725 392.037 100.189 391.568L96.9085 388.272C95.5432 388.795 94.8605 389.621 94.8605 390.752C94.8605 391.381 95.0845 391.904 95.5325 392.32C95.9912 392.736 96.5832 392.944 97.3085 392.944ZM111.562 382.848V389.904C111.562 390.896 111.802 391.632 112.282 392.112C112.773 392.592 113.45 392.832 114.314 392.832C115.168 392.832 115.834 392.592 116.314 392.112C116.805 391.632 117.05 390.896 117.05 389.904V382.848H118.506V389.888C118.506 390.816 118.32 391.6 117.946 392.24C117.573 392.869 117.066 393.339 116.426 393.648C115.797 393.957 115.088 394.112 114.298 394.112C113.509 394.112 112.794 393.957 112.154 393.648C111.525 393.339 111.024 392.869 110.65 392.24C110.288 391.6 110.106 390.816 110.106 389.888V382.848H111.562ZM125.495 388.432L128.919 394H127.271L124.599 389.648L122.055 394H120.439L123.847 388.432L120.423 382.848H122.055L124.743 387.216L127.303 382.848H128.935L125.495 388.432Z" fill="url(#paint5_linear_126_5273)"/>
</g>
<defs>
<filter id="filter0_d_126_5273" x="0" y="80" width="266" height="352" filterUnits="userSpaceOnUse" color-interpolation-filters="sRGB">
<feFlood flood-opacity="0" result="BackgroundImageFix"/>
<feColorMatrix in="SourceAlpha" type="matrix" values="0 0 0 0 0 0 0 0 0 0 0 0 0 0 0 0 0 0 127 0" result="hardAlpha"/>
<feOffset dy="8"/>
<feGaussianBlur stdDeviation="4"/>
<feComposite in2="hardAlpha" operator="out"/>
<feColorMatrix type="matrix" values="0 0 0 0 0 0 0 0 0 0 0 0 0 0 0 0 0 0 0.25 0"/>
<feBlend mode="normal" in2="BackgroundImageFix" result="effect1_dropShadow_126_5273"/>
<feBlend mode="normal" in="SourceGraphic" in2="effect1_dropShadow_126_5273" result="shape"/>
</filter>
<linearGradient id="paint0_linear_126_5273" x1="33.4259" y1="-9.60003" x2="149.059" y2="5.71112" gradientUnits="userSpaceOnUse">
<stop stop-color="#002F52"/>
<stop offset="1" stop-color="#326589"/>
</linearGradient>
<linearGradient id="paint1_linear_126_5273" x1="84.228" y1="149.12" x2="208.817" y2="235.042" gradientUnits="userSpaceOnUse">
<stop stop-color="#002F52"/>
<stop offset="1" stop-color="#326589"/>
</linearGradient>
<linearGradient id="paint2_linear_126_5273" x1="69.6042" y1="205.12" x2="175.792" y2="257.846" gradientUnits="userSpaceOnUse">
<stop stop-color="#002F52"/>
<stop offset="1" stop-color="#326589"/>
</linearGradient>
<linearGradient id="paint3_linear_126_5273" x1="86.735" y1="261.12" x2="213.295" y2="352.59" gradientUnits="userSpaceOnUse">
<stop stop-color="#002F52"/>
<stop offset="1" stop-color="#326589"/>
</linearGradient>
<linearGradient id="paint4_linear_126_5273" x1="62.5012" y1="317.12" x2="154.882" y2="354.326" gradientUnits="userSpaceOnUse">
<stop stop-color="#002F52"/>
<stop offset="1" stop-color="#326589"/>
</linearGradient>
<linearGradient id="paint5_linear_126_5273" x1="72.9468" y1="373.12" x2="184.477" y2="433.422" gradientUnits="userSpaceOnUse">
<stop stop-color="#002F52"/>
<stop offset="1" stop-color="#326589"/>
</linearGradient>
<clipPath id="clip0_126_5273">
<rect width="48" height="48" fill="white" transform="translate(24 16)"/>
</clipPath>
</defs>
</svg>
